HIERARCHY
ROOT Hips
{
	OFFSET -0.001795 -0.223333 0.028219
	CHANNELS 6 Xposition Yposition Zposition Zrotation Yrotation Xrotation 
	JOINT LeftUpLeg
	{
		OFFSET 0.069520 -0.091406 -0.006815
		CHANNELS 3 Zrotation Yrotation Xrotation
		JOINT LeftLeg
		{
			OFFSET 0.034277 -0.375199 -0.004496
			CHANNELS 3 Zrotation Yrotation Xrotation
			JOINT LeftFoot
			{
				OFFSET -0.013596 -0.397961 -0.043693
				CHANNELS 3 Zrotation Yrotation Xrotation
				JOINT LeftToe
				{
					OFFSET 0.026358 -0.055791 0.119288
					CHANNELS 3 Zrotation Yrotation Xrotation
					End Site
					{
						OFFSET 0.000000 0.000000 0.000000
					}
				}
			}
		}
	}
	JOINT RightUpLeg
	{
		OFFSET -0.067670 -0.090522 -0.004320
		CHANNELS 3 Zrotation Yrotation Xrotation
		JOINT RightLeg
		{
			OFFSET -0.038290 -0.382569 -0.008850
			CHANNELS 3 Zrotation Yrotation Xrotation
			JOINT RightFoot
			{
				OFFSET 0.015774 -0.398415 -0.042312
				CHANNELS 3 Zrotation Yrotation Xrotation
				JOINT RightToe
				{
					OFFSET -0.025372 -0.048144 0.123348
					CHANNELS 3 Zrotation Yrotation Xrotation
					End Site
					{
						OFFSET 0.000000 0.000000 0.000000
					}
				}
			}
		}
	}
	JOINT Spine
	{
		OFFSET -0.002533 0.108963 -0.026696
		CHANNELS 3 Zrotation Yrotation Xrotation
		JOINT Spine1
		{
			OFFSET 0.005487 0.135180 0.001092
			CHANNELS 3 Zrotation Yrotation Xrotation
			JOINT Spine2
			{
				OFFSET 0.001457 0.052922 0.025425
				CHANNELS 3 Zrotation Yrotation Xrotation
				JOINT Neck
				{
					OFFSET -0.002778 0.213870 -0.042857
					CHANNELS 3 Zrotation Yrotation Xrotation
					JOINT Head
					{
						OFFSET 0.005152 0.064970 0.051349
						CHANNELS 3 Zrotation Yrotation Xrotation
						End Site
						{
							OFFSET 0.000000 0.000000 0.000000
						}
					}
				}
				JOINT LeftShoulder
				{
					OFFSET 0.078845 0.121749 -0.034090
					CHANNELS 3 Zrotation Yrotation Xrotation
					JOINT LeftArm
					{
						OFFSET 0.090977 0.030469 -0.008868
						CHANNELS 3 Zrotation Yrotation Xrotation
						JOINT LeftForeArm
						{
							OFFSET 0.259612 -0.012772 -0.027456
							CHANNELS 3 Zrotation Yrotation Xrotation
							JOINT LeftHand
							{
								OFFSET 0.249234 0.008986 -0.001171
								CHANNELS 3 Zrotation Yrotation Xrotation
								End Site
								{
									OFFSET 0.000000 0.000000 0.000000
								}
							}
						}
					}
				}
				JOINT RightShoulder
				{
					OFFSET -0.081759 0.118833 -0.038615
					CHANNELS 3 Zrotation Yrotation Xrotation
					JOINT RightArm
					{
						OFFSET -0.096012 0.032551 -0.009143
						CHANNELS 3 Zrotation Yrotation Xrotation
						JOINT RightForeArm
						{
							OFFSET -0.253742 -0.013329 -0.021401
							CHANNELS 3 Zrotation Yrotation Xrotation
							JOINT RightHand
							{
								OFFSET -0.255298 0.007772 -0.005559
								CHANNELS 3 Zrotation Yrotation Xrotation
								End Site
								{
									OFFSET 0.000000 0.000000 0.000000
								}
							}
						}
					}
				}
			}
		}
	}
}
MOTION
Frames: 13
Frame Time: 0.050000
0.000000 0.919155 0.000000 -0.658791 3.172514 -46.313814 5.477565 1.643559 59.288554 1.101961 -0.341328 4.488353 11.412547 23.016302 35.917575 0.000000 0.000000 0.000000 -0.998908 -3.732145 37.429635 -2.550186 0.608912 5.177406 -1.048382 -6.814830 11.413073 0.000000 0.000000 0.000000 -9.771400 5.406606 112.230110 26.236129 10.018889 -87.940859 2.530348 20.007672 44.655669 3.330247 4.161582 -17.730409 0.000000 0.000000 0.000000 -35.962865 -1.502848 -11.917155 -45.112825 4.104075 -8.520973 -35.196408 -58.084301 21.825822 0.000000 0.000000 0.000000 26.938470 -2.707232 5.960679 40.659601 6.766228 -9.152336 30.478703 82.281668 42.181474 0.000000 0.000000 0.000000 
-0.009251 0.923174 0.028651 -1.195479 0.407642 -47.273103 8.263064 0.854250 58.828958 -0.520788 -0.240206 8.690535 11.357673 22.702102 44.399555 0.000000 0.000000 0.000000 0.257965 -4.142788 39.647419 -2.202196 0.610934 6.014202 -0.153605 -5.222928 11.137644 0.000000 0.000000 0.000000 -8.372269 4.935289 113.678368 25.121834 9.143639 -88.403306 4.128154 20.070896 43.972039 1.201502 5.678744 -16.790177 0.000000 0.000000 0.000000 -35.199930 -0.501688 -12.222496 -46.875933 3.080293 -8.572163 -41.190814 -59.551885 26.174444 0.000000 0.000000 0.000000 23.456786 -3.486236 4.337109 42.256619 5.685484 -9.090019 66.982793 81.728435 76.720031 0.000000 0.000000 0.000000 
-0.016970 0.928580 0.055015 -0.936908 -0.362817 -46.874979 9.621537 0.391084 54.649110 -2.234678 -0.040646 14.618135 8.077454 19.770412 51.674991 0.000000 0.000000 0.000000 0.197766 -4.156768 40.610252 -1.765232 0.572382 6.538057 0.240754 -4.579971 11.282168 0.000000 0.000000 0.000000 -7.355561 3.933520 114.196836 23.819191 9.475027 -91.739304 3.203558 19.080421 45.464175 -0.547087 6.817020 -16.345525 0.000000 0.000000 0.000000 -37.125798 0.681964 -13.327226 -45.068748 1.040185 -7.613840 -44.820723 -63.901720 31.234649 0.000000 0.000000 0.000000 21.711648 -3.008369 3.874176 44.172760 4.289697 -9.521697 83.714101 79.801122 91.251533 0.000000 0.000000 0.000000 
-0.022438 0.932187 0.079739 -0.782477 0.092513 -46.152110 9.937279 0.266610 50.037144 -3.635476 0.224581 18.681628 8.200792 19.822087 54.215192 0.000000 0.000000 0.000000 -0.145186 -4.166992 41.742034 -1.176405 0.445685 6.093558 0.176256 -4.676792 11.332662 0.000000 0.000000 0.000000 -7.477566 3.880873 112.951058 27.478191 11.662384 -95.032717 2.849761 22.204865 51.046967 1.334242 6.342895 -16.330504 0.000000 0.000000 0.000000 -38.311442 -0.146789 -15.594465 -44.513291 1.412608 -7.407672 -55.171382 -66.115267 39.721612 0.000000 0.000000 0.000000 22.320918 -2.913346 5.185943 41.790194 5.876396 -9.484735 117.843719 79.524050 128.551138 0.000000 0.000000 0.000000 
-0.025998 0.936011 0.103328 -0.565852 -0.736855 -45.853199 9.410023 0.753588 46.233723 -4.809487 0.587281 19.992495 7.953305 19.537739 51.823912 0.000000 0.000000 0.000000 -0.241839 -4.112412 43.326128 -1.140497 0.401133 5.318349 0.651803 -3.965958 11.785550 0.000000 0.000000 0.000000 -6.577177 3.267597 113.044794 26.218788 11.011768 -95.461531 3.571648 22.124358 51.078103 1.033496 6.434718 -15.066998 0.000000 0.000000 0.000000 -38.951327 -2.134625 -14.023972 -43.182560 -0.672274 -6.524428 -57.851854 -69.358526 44.344170 0.000000 0.000000 0.000000 22.590705 -3.074165 5.146386 41.245863 5.008451 -9.782121 136.109014 77.039370 148.136016 0.000000 0.000000 0.000000 
-0.027637 0.939117 0.126190 -0.315840 -0.734136 -45.559304 8.345135 1.176573 42.886492 -4.296908 0.454884 18.297302 4.986378 16.846315 45.874729 0.000000 0.000000 0.000000 -0.447018 -4.120401 44.713459 -1.378865 0.414058 4.872327 0.793933 -3.865365 12.276727 0.000000 0.000000 0.000000 -6.458477 3.249016 113.106336 27.074124 11.629830 -96.707924 3.464311 22.740920 52.427526 0.999006 6.665470 -15.253574 0.000000 0.000000 0.000000 -38.361765 -2.614953 -13.864002 -43.417819 -2.386416 -6.116494 -57.820778 -71.321336 45.668342 0.000000 0.000000 0.000000 22.374442 -2.666136 5.581620 40.855555 5.371607 -9.748549 152.990927 75.238667 168.986480 0.000000 0.000000 0.000000 
-0.027336 0.941109 0.148576 0.188059 -0.288664 -45.499672 6.776680 1.621214 41.225854 -2.952480 0.153309 13.967458 2.823692 14.461993 41.230677 0.000000 0.000000 0.000000 -1.206882 -4.012266 46.051418 -1.536952 0.442318 4.948906 0.822176 -3.913486 12.603550 0.000000 0.000000 0.000000 -5.964760 2.383293 113.656916 23.858708 10.623445 -97.019847 2.888474 19.829071 51.655118 0.280329 6.558521 -15.912442 0.000000 0.000000 0.000000 -37.806108 -2.900923 -11.148033 -42.513946 -6.461250 -5.440588 -47.701691 -73.624663 39.867312 0.000000 0.000000 0.000000 22.440062 -3.086202 4.657221 39.741724 4.775798 -9.814899 163.008671 71.285542 -179.534968 0.000000 0.000000 0.000000 
-0.025517 0.941705 0.170719 0.448033 -1.052322 -45.094650 5.899645 1.971573 39.405883 -2.076109 0.087736 8.231483 2.575161 14.143109 41.636104 0.000000 0.000000 0.000000 -1.446716 -3.815267 46.829449 -1.929545 0.517130 5.160067 1.123151 -3.389783 12.548601 0.000000 0.000000 0.000000 -5.187450 1.816514 114.158376 23.044945 9.946449 -96.567458 2.356990 19.518999 50.602594 -0.281834 6.936339 -17.198583 0.000000 0.000000 0.000000 -37.454252 -3.479423 -10.279838 -41.051217 -7.904228 -4.769779 -33.583932 -73.213994 28.272507 0.000000 0.000000 0.000000 22.693309 -2.297277 5.073478 38.167772 5.397055 -9.267855 175.948128 67.532570 -161.281824 0.000000 0.000000 0.000000 
-0.022753 0.942638 0.193059 0.425515 -2.345538 -45.243750 6.063029 2.118235 39.593644 -1.603353 0.189138 -0.023942 1.998470 13.966366 45.808331 0.000000 0.000000 0.000000 -1.493406 -3.653259 48.428413 -2.378346 0.569639 4.862218 1.730993 -2.551564 13.083326 0.000000 0.000000 0.000000 -4.172899 1.167326 115.044772 21.051917 8.051491 -93.214387 2.294676 18.241612 46.183277 -1.077391 7.058509 -17.189309 0.000000 0.000000 0.000000 -37.492732 -3.328501 -9.593313 -39.819311 -8.050239 -4.265615 -18.127660 -68.737309 15.123258 0.000000 0.000000 0.000000 22.291114 -1.433182 4.946033 36.847257 5.446128 -8.498210 -172.797893 63.922735 -143.853107 0.000000 0.000000 0.000000 
-0.019342 0.941906 0.216135 -0.220573 -5.945732 -45.172313 7.480554 2.167418 40.364797 -0.690817 0.357039 -9.161058 0.984721 13.042049 48.227947 0.000000 0.000000 0.000000 -0.582281 -3.444890 49.658344 -3.180937 0.674940 4.604195 3.006767 -0.538284 13.232770 0.000000 0.000000 0.000000 -2.629004 0.963649 115.681924 18.995579 5.618938 -89.193863 3.776202 18.707747 41.730151 -1.751643 7.506821 -18.310925 0.000000 0.000000 0.000000 -36.706258 -3.631186 -9.243224 -38.897420 -7.330090 -3.789429 -11.719827 -61.060365 8.794667 0.000000 0.000000 0.000000 22.007552 -1.963000 4.268831 35.745445 6.483928 -7.578630 -166.665557 58.622644 -130.674022 0.000000 0.000000 0.000000 
-0.015110 0.940521 0.240885 -0.712224 -8.563300 -45.108143 8.778305 2.138685 40.658352 0.222910 0.538897 -13.905590 0.163412 11.676201 45.787334 0.000000 0.000000 0.000000 -0.018976 -3.213594 50.996262 -4.011873 0.786790 4.474429 3.928948 0.823475 13.477590 0.000000 0.000000 0.000000 -2.075685 1.822840 116.180915 17.036785 3.640307 -83.870152 4.380070 17.856428 36.185139 -1.066742 6.476087 -19.073510 0.000000 0.000000 0.000000 -36.261560 -3.915963 -8.361293 -38.142525 -6.865781 -3.385013 -6.550011 -52.377366 4.584572 0.000000 0.000000 0.000000 20.871929 -1.320763 3.726729 35.257587 7.593492 -6.507449 -162.306502 52.663923 -119.044269 0.000000 0.000000 0.000000 
-0.009209 0.937840 0.267825 -0.703243 -10.428814 -44.778666 8.764780 2.388956 40.076855 1.282709 0.526530 -13.457506 0.672356 11.112065 41.184490 0.000000 0.000000 0.000000 -0.054612 -2.753787 51.837301 -5.021378 0.973832 4.879718 4.501462 1.748477 13.362647 0.000000 0.000000 0.000000 -2.259399 3.432261 116.121690 17.507175 3.118606 -83.079663 4.671343 18.848287 36.037256 -1.108293 6.785943 -21.217234 0.000000 0.000000 0.000000 -34.925633 -4.543492 -7.906775 -38.012671 -7.442219 -3.142161 -6.276049 -42.738851 3.454636 0.000000 0.000000 0.000000 20.959543 -0.751411 4.187931 32.717023 10.906636 -5.425601 -157.978400 46.866339 -104.997296 0.000000 0.000000 0.000000 
-0.000957 0.934283 0.296813 -1.459280 -14.057370 -45.135003 10.069989 2.523321 41.436990 1.951474 0.417296 -11.688560 3.361570 12.834130 36.622949 0.000000 0.000000 0.000000 0.671008 -2.373660 52.904686 -5.908131 1.163329 5.392695 5.084542 1.243904 15.362290 0.000000 0.000000 0.000000 -2.081402 5.381901 116.182272 17.876445 2.020469 -79.603897 5.411652 20.915293 33.771608 0.038072 6.295206 -22.117180 0.000000 0.000000 0.000000 -33.240007 -5.465563 -7.657920 -38.986259 -6.471100 -3.084153 -5.778474 -37.080672 2.543603 0.000000 0.000000 0.000000 20.186568 0.465640 4.832902 30.509909 13.303537 -4.466648 -155.094454 43.174628 -94.525075 0.000000 0.000000 0.000000 
